<svg xmlns="http://www.w3.org/2000/svg" viewBox="0 0 120 120" width="240" height="240" fill="none">
  <defs>
    <mask id="mPrimary">
      <rect x="8" y="38" width="44" height="44" rx="11" fill="#fff"></rect>
      <rect x="20" y="47" width="7.5" height="26" rx="1.5" fill="#000"></rect>
      <rect x="20" y="47" width="21" height="7.5" rx="1.5" fill="#000"></rect>
      <rect x="20" y="58" width="15" height="7.5" rx="1.5" fill="#000"></rect>
    </mask>
  </defs>
  <path d="M50 60 C68 60 74 33 94 32" stroke="#f59e0b" stroke-width="4.5" fill="none" stroke-linecap="round"></path>
  <path d="M50 60 C68 60 78 50 94 50" stroke="#a684ff" stroke-width="4.5" fill="none" stroke-linecap="round"></path>
  <path d="M50 60 C68 60 78 70 94 70" stroke="#a684ff" stroke-width="4.5" fill="none" stroke-linecap="round"></path>
  <path d="M50 60 C68 60 74 87 94 88" stroke="#a684ff" stroke-width="4.5" fill="none" stroke-linecap="round"></path>
  <circle cx="98" cy="32" r="5.5" fill="#f59e0b"></circle>
  <circle cx="98" cy="50" r="5.5" fill="#a684ff"></circle>
  <circle cx="98" cy="70" r="5.5" fill="#a684ff"></circle>
  <circle cx="98" cy="88" r="5.5" fill="#a684ff"></circle>
  <rect x="8" y="38" width="44" height="44" rx="11" fill="#a684ff" mask="url(#mPrimary)"></rect>
</svg>